<svg width="28" height="28" viewBox="0 0 28 28" fill="none" xmlns="http://www.w3.org/2000/svg">
<path d="M22.8958 25.6667L20.5135 23.5667L19.1707 22.3183L17.7508 21L18.3342 23.0522H5.77148C4.51337 23.0477 3.49676 22.0248 3.49998 20.7667V5.78317C3.49805 4.52596 4.51428 3.5045 5.77148 3.5H20.6243C21.8815 3.5045 22.8978 4.52596 22.8958 5.78317V25.6667ZM17.6167 15.7593C17.1247 16.4191 16.4165 16.8849 15.6158 17.0753C15.9448 17.4953 16.3415 17.9702 16.345 17.9748C17.6833 18.0031 18.9505 17.3737 19.7365 16.2902C19.6962 14.044 19.1507 11.8357 18.1405 9.82917C17.2511 9.13123 16.1684 8.72391 15.0395 8.6625H15.0267L14.8715 8.83983C15.8798 9.11068 16.8202 9.59 17.6318 10.2468C16.5991 9.67914 15.4658 9.31776 14.2952 9.18283C13.5511 9.10019 12.7998 9.10764 12.0575 9.205C12.005 9.20604 11.9527 9.2115 11.9012 9.22133H11.8685C10.9986 9.3215 10.1498 9.55771 9.35315 9.92133C8.95415 10.1045 8.70915 10.2375 8.69865 10.2422C8.68815 10.2468 8.69865 10.2422 8.69865 10.234C9.55952 9.55692 10.5527 9.06769 11.6142 8.79783L11.4975 8.66483H11.4905C10.3616 8.72639 9.27899 9.1337 8.38948 9.8315C7.37554 11.8367 6.82984 14.0458 6.79348 16.2925C7.56971 17.3832 8.83865 18.015 10.1768 17.9772C10.1768 17.9772 10.5945 17.4685 10.92 17.0567C10.1395 16.8605 9.45176 16.3985 8.97515 15.75C8.98332 15.7558 9.09882 15.834 9.28548 15.9367C9.29802 15.9514 9.31353 15.9633 9.33098 15.9717C9.34577 15.9819 9.36138 15.9909 9.37765 15.9985C9.3961 16.0069 9.41368 16.017 9.43015 16.0288C9.69045 16.1723 9.96063 16.2971 10.2387 16.4022C10.7672 16.6115 11.314 16.7716 11.872 16.8805C12.3605 16.9726 12.8565 17.0195 13.3537 17.0205C13.8198 17.0205 14.2849 16.9775 14.7432 16.8922C15.295 16.7953 15.834 16.6356 16.3497 16.4162C16.795 16.2449 17.22 16.0246 17.6167 15.7593ZM15.239 15.2612C14.7314 15.3054 14.2487 15.0336 14.0234 14.5766C13.7982 14.1195 13.8766 13.5711 14.2209 13.1955C14.5651 12.8199 15.1047 12.6942 15.5795 12.8789C16.0544 13.0636 16.3671 13.5208 16.3672 14.0303C16.3929 14.6812 15.8885 15.2309 15.2378 15.2612H15.239ZM11.193 15.2612C10.5546 15.2055 10.0648 14.6711 10.0648 14.0303C10.0648 13.3896 10.5546 12.8551 11.193 12.7995C11.487 12.8004 11.7682 12.9203 11.9723 13.132C12.2039 13.3724 12.3299 13.6954 12.3223 14.0292C12.3493 14.6812 11.8437 15.2322 11.1918 15.2612H11.193Z" fill="#130F26"/>
</svg>
