<svg width="28" height="28" viewBox="0 0 28 28" fill="none" xmlns="http://www.w3.org/2000/svg">
<path d="M21 25.6667H6.99999C5.71133 25.6667 4.66666 24.622 4.66666 23.3334V4.66669C4.66666 3.37802 5.71133 2.33335 6.99999 2.33335H15.1667C15.1771 2.332 15.1877 2.332 15.1982 2.33335H15.2052C15.2162 2.3368 15.2275 2.33915 15.239 2.34035C15.3419 2.34695 15.4435 2.36695 15.5412 2.39985H15.5587H15.5762H15.5902C15.6117 2.41493 15.632 2.43171 15.6508 2.45002C15.7779 2.50651 15.8937 2.58557 15.9927 2.68335L22.9927 9.68335C23.0904 9.78227 23.1695 9.89808 23.226 10.0252C23.2365 10.0509 23.2447 10.0754 23.2528 10.1022L23.2645 10.1349C23.2971 10.2321 23.3163 10.3334 23.3217 10.4359C23.3227 10.4475 23.3254 10.4589 23.3298 10.4697V10.4767C23.3317 10.4843 23.3329 10.4921 23.3333 10.5V23.3334C23.3333 23.9522 23.0875 24.5457 22.6499 24.9833C22.2123 25.4209 21.6188 25.6667 21 25.6667ZM15.1667 4.66669V10.5H21L15.1667 4.66669Z" fill="white"/>
</svg>
